<?xml version="1.0" encoding="UTF-8" standalone="yes"?>
<svg version="1.2" baseProfile="tiny-ps" viewBox="0 0 300 300" xmlns="http://www.w3.org/2000/svg">
  <title>bimi-svg-tiny-12-ps</title>
  <g>
    <g fill="#fff" transform="matrix(.1 0 0 -.1 0 300)">
      <path d="M0 1500V0h3000v3000H0V1500z"/>
    </g>
    <g fill="#d3dfd3" transform="matrix(.1 0 0 -.1 0 300)">
      <path d="M1197 1776c-20-7-52-25-71-39l-33-26-18-38c-10-21-20-59-23-84l-4-47 12-38c7-22 23-53 36-70l23-32 53-26 52-26h49c27 0 67 5 88 12l39 11 40 34c22 19 40 39 40 44s-20 18-45 29l-45 19-36-24-37-25h-79l-39 39-39 39v33c0 46 19 79 59 106l34 23h64l39-26 38-26 43 21c24 11 43 24 43 29 0 13-52 58-90 77l-34 18-61 3-60 4-38-14zm803-206v-220h110v140h45l38-70 37-70h110v15c0 8-18 42-40 77l-39 63 23 12 23 12 18 37 17 37-4 54-5 53-28 30-28 29-49 10-49 11h-179v-220zm226 95 16-24-7-21-7-21-25-10c-13-5-40-9-59-9h-34v110h100l16-25zm-569 102c-20-6-53-25-72-40l-35-28-22-42-21-42v-57l1-58 27-45 26-45 41-27 40-27 63-4 63-4 51 27 50 28 28 40 28 40v155l-30 44-31 43-41 23-40 22-44 5-44 4-38-12zm91-24 3-23h-12c-7 0-21-7-31-17l-18-16v54l-17 6-18 7 25 7c14 4 34 7 45 6l20-2 3-22zm-124-28c-4-8-12-15-20-15-18 0-18-14 1-30l15-12 6 15 6 16 14-6c8-3 14-8 14-12 0-11-55-71-65-71-6 0-16-4-24-9l-15-9 13-16c20-24 5-19-19 6l-20 22v50l23 33 22 33 25 9c14 5 26 10 27 10 1 1 0-6-3-14zm31 6 5-10-10-6-10-6v15c0 18 6 21 15 7zm211-24c48-50 67-120 42-146-7-6-13-15-14-19-9-57-45-124-59-111-5 6-11 37-14 81l-1 17-27 3-28 3-3 23-4 23 13 15c7 9 13 24 14 35l2 19 19 14 19 14-7 7-7 8 10 18c13 24 19 24 45-4zm-208-177c12-11 26-20 32-20h10v-38l-35-42-35-42v78l-15 22-16 22 11 20c13 25 21 25 48 0zm132 101v-11h15c8 0 15-4 15-10v-10h64l-14 15c-9 8-30 17-48 21l-32 7v-12zm610-56v-215h331l-3 48-3 47-107 3-108 3v69h190v100h-190v70h210v90h-320v-215zM366 1667l-39-22-24-44-23-44v-33c0-92 82-174 174-174h31l41 19 41 18 21 28c12 15 27 46 33 68l11 41-12 41-12 40-26 28c-15 16-39 35-54 43l-27 14h-96l-39-23zm134-97 20-20v-53l-17-19-16-18h-60l-19 17-18 16v66l22 15c12 9 33 16 45 16h23l20-20zm180-51v-170l53 3 52 3 5 101 5 101 14 17 13 16h46l10-13 11-13 3-105 3-104 53-3 52-3v252l-15 29c-8 16-25 36-37 44l-22 16h-92l-22-16-22-15v31H680v-171zm130-234v-15h30v30h-30v-15zm430 0v-15h30v30h-30v-15zm875 6-5-10 10-6 10-6 10 6 10 6-5 10c-4 5-10 9-15 9s-11-4-15-9zm-195-25c0-8-6-17-12-20l-13-6 13-6 12-6v-76l15-12 15-12 15 6c19 7 20 26 0 26h-15v70h15c8 0 15 5 15 10 0 6-7 10-15 10h-15v30h-30v-14zm-1550-26-20-20v-50l20-20 20-20h50l20 20 20 20v47l-23 21-23 22h-44l-20-20zm75-45v-30h-60l-3 18c-2 10-1 25 2 33l6 15 27-3 28-3v-30zm172 58c-4-3-7-33-7-65v-58h30v80l20 12c11 7 20 18 20 25 0 16-12 17-28 1l-12-12v12c0 13-13 16-23 5zm193-58v-65h30v130h-30v-65zm189 55-17-10-6-26-7-26 16-25 17-25 34 4 34 4v-7c0-4-6-12-14-18l-13-11-32 6-31 7v-11c0-12 24-22 56-22h24l20 20 21 21-3 61-3 62-40 3-40 2-16-9zm66-41 7-21-15-15-15-16-16 6c-20 8-30 32-22 52l5 15h50l6-21zm175-14v-65h30v130h-30v-65zm174 51c-3-7-4-35-2-61l3-48 13-5 12-4v80l15 12 15 12 15-6 15-5v-91h30v99l-16 15c-18 19-45 21-62 4l-12-12v12c0 16-19 15-26-2zm270-1-19-14 10-2c6 0 22 0 38 1l27 2v-22h-49l-15-16c-18-18-19-23-6-44l9-15 46-1 45-2v107l-19 11c-27 14-44 13-67-5zm56-70v-15h-50v8c0 14 12 22 32 22h18v-15zm380 20v-65h20v130h-20v-65zm180 45-20-20v-50l20-20 20-20h49l20 26c27 34 26 50-4 79l-24 25h-41l-20-20zm75-29c3-10 3-26-1-35l-7-17-26 3-26 3-3 18c-2 10-1 25 2 33l5 14h50l6-19zm165-18v-63h29l3 48 3 47h50l3-47 3-48h29v99l-15 14-15 15h-45l-45-1v-64z"/>
    </g>
    <g fill="#afc8a4" transform="matrix(.1 0 0 -.1 0 300)">
      <path d="M1220 1781c-72-22-128-71-154-133l-16-37v-86l19-41 18-40 43-37 43-36 52-12 53-12 44 7 45 7 46 29c25 16 50 37 56 48l10 20-46 20-47 20-29-24-29-24h-79l-29 15-30 15-15 30-15 29v33c1 42 19 74 56 99l29 19h72l36-25 37-24 45 20 45 20-10 19c-33 62-169 105-250 81zm780-211v-210h110v130h48l33-65 34-65h115v8c-1 4-18 36-40 71l-38 64 28 24 29 24 11 35 12 36-5 40c-3 21-13 50-22 64l-17 26-33 14-34 14h-231v-210zm230 101c5-11 10-29 10-40v-20l-22-15-22-16h-86v110h109l11-19zm172-103 3-213h320l3 43 3 42h-221v79l93 3 92 3 3 43 3 42h-191v80h210v90h-320l2-212zm-778 181c-23-11-50-30-60-42l-19-21 29 22 29 23 11-11 11-11-18-10-17-10 5-10c10-15 24-10 36 12l11 22-12 7-13 8 8 12 7 11 16-22 16-23-13-4-12-4 16-18 16-17-36-36c-20-20-43-37-53-39l-17-3 5-10c3-6 8-9 13-7 4 1 7-5 7-13s-2-15-4-15c-10 0-53 46-62 65l-9 20-3-57-3-57 20-39 20-39 38-33 38-34 3 43 3 43-16 18-16 18 7 26 6 26h15c8 0 29-12 47-27l31-26-3-16c-2-8-17-32-33-52s-29-41-29-47c0-13 35-22 85-22h40l40 19c22 10 53 32 69 49l28 30-7 13-8 12 10-6 11-7 11 32c6 17 10 45 10 62l-1 31-5-17c-2-10-9-18-14-18s-9-7-9-15-4-23-9-33c-5-9-15-31-21-49-7-17-18-34-26-37l-13-5-6 37c-4 20-7 44-8 52l-2 15-20 3c-11 2-25 9-32 14l-12 10 13 31c7 18 11 38 9 45l-5 12h24l-6 28-7 27 10-14 9-14 10 7 11 7-5 13-5 14 21 15 22 15-24 15c-12 9-36 19-51 23l-28 6 2-8c1-5 1-16 0-24l-1-15-28-16-27-15-16 33-16 32 11 5 11 4-10 1c-5 1-29-8-51-20zm116-59c0-5-7-10-16-10h-15l6 10c3 6 10 10 16 10 5 0 9-4 9-10zm-1355-14c-40-18-82-67-96-114l-11-38 12-44 12-44 32-32 32-32 43-12 43-11 31 6c18 4 48 17 68 30l36 23 16 35 17 35v93l-15 29c-8 16-31 41-51 56l-35 27-52 4-52 3-30-14zm113-102 22-15v-68l-15-15c-8-8-23-17-34-21l-18-6-27 11-26 10-10 25c-14 37-13 43 15 70l24 25h23c13 0 34-7 46-16zm182-49v-165h100v157l11 32 11 31 24 6c33 8 53-1 64-31l10-26v-169h100v231l-14 34-14 34-31 15-30 16h-68l-26-20c-14-11-28-20-31-20s-6 9-6 20v20H680v-165zm1116 97-6-10 23-7c12-4 30-9 40-11l17-4v9c0 5-8 11-17 14-10 2-25 8-34 12l-17 6-6-9zm-984-333c2-6 8-10 13-10s11 4 13 10l4 11h-34l4-11zm430 0c2-6 8-10 13-10s11 4 13 10l4 11h-34l4-11zm878-4c0-8 5-15 10-15 6 0 10 7 10 15s-4 15-10 15c-5 0-10-7-10-15zm-202-22c-2-10-2-39 0-66l4-47 19-11 19-10 10 6c15 9 12 25-5 25h-15v70h15c8 0 15 5 15 10 0 6-7 10-15 10h-15v30h-28l-4-17zm-1553-37-17-25 7-21c4-11 17-28 30-36l24-16 21 7c11 4 28 17 36 30l16 24-14 28-13 28-37 3-37 3-16-25zm85-30v-24l-16-13-16-13-16 11-17 10-3 23-4 24 17 13 18 12 18-10 19-10v-23zm170-8v-59l10 6 10 6v81l20 5c11 3 20 9 20 13v9l-30-1-30-1v-59zm192 7 3-55h20l3 55 3 55h-32l3-55zm180 43-12-12v-55l17-16 16-17 29 6 28 6v-9c0-5-7-14-15-21l-15-12-25 6-25 6v-9c0-24 62-28 84-5l16 15v126l-43 1-43 2-12-12zm63-11 18-14-7-27-7-27-27 3-27 3-3 23-4 23 12 15c15 17 21 18 45 1zm187-32 3-55h20l3 55 3 55h-32l3-55zm178-9v-60l9 10c5 5 11 27 13 49l3 40 24 3 24 4 8-14c5-7 9-30 9-51v-38l10 6 10 6v87l-14 11-13 11-42-2-41-1v-61zm260 53v-11l24 6 24 6 12-15 12-15h-21c-12 0-31-5-42-10l-19-11v-38l20-11 20-11 20 11 20 11v-11c0-5 5-10 10-10h10v44c0 24-3 51-6 60l-6 16h-78v-11zm68-61c-2-6-12-16-21-22l-16-11-12 12-11 11 6 11 7 11h51l-4-12zm372 12v-60h20v120h-20v-60zm176 41-18-19 4-23 3-22 28-21 28-21 27 16 27 15 3 32 3 33-12 15-11 14h-65l-17-19zm84-36v-24l-19-11-20-10-14 6c-8 3-17 14-20 25l-6 20 20 20 19 19 20-10 20-11v-24zm162-1 3-54 10-3 10-2 5 45 5 45 27 3 27 3 3-48 3-48h20l3 37 3 37-11 20-11 21-50-2-50-1 3-53z"/>
    </g>
    <g fill="#80aa4c" transform="matrix(.1 0 0 -.1 0 300)">
      <path d="M1218 1777c-58-17-90-38-121-79-48-65-57-126-32-199l16-44 27-28c36-38 87-64 144-72l46-7 54 16 54 16 39 37 38 37-49 22-49 22-22-20c-11-11-36-23-55-27l-35-8-33 11-34 11-23 34-23 34v68l15 29 15 30 30 15 29 15h79l30-25 30-25 45 21 45 22-14 22c-8 12-36 34-62 48l-47 25-45 6-45 5-47-12zm782-206v-211h110v130h49l33-62 33-63 58-3c31-2 57-1 57 2s-18 35-40 70l-39 65 34 34 33 33 7 45 6 44-13 39-13 39-28 21-28 21-130 3-129 4v-211zm228 107c7-7 12-23 12-37v-24l-17-19-16-18h-107v110h116l12-12zm172-108v-210h320v80h-210v90h190v80h-190v79l103 3 102 3 3 43 3 42h-321v-210zm-640 185c0-8-9-24-19-34l-20-20 12-4 12-4-11-13-12-12-21 18-21 18v37l-15 6-16 5-7-6-6-7 13-9 14-8-5-14-6-14 14-19c8-10 14-23 14-28v-9l-12 5-13 4-22-24c-13-13-23-28-23-33v-8l-20 5c-25 7-25-1-3-27l17-20h43l23-20c13-11 27-20 33-20h9l-6-26c-4-14-16-35-27-47s-25-30-30-40l-10-17 18-8c10-4 41-7 68-6h50l40 21c22 12 49 30 59 42l19 21-6 6-6 7-19-23-19-23-11 7-12 7v37c0 46-8 59-40 63l-25 4-3 23-4 24 16 17 16 18-7 7-7 7 14 9 14 8-12 15-12 14 7 6 6 7 14-12 15-12-3 15c-1 7 1 22 5 32l8 17h32l-9 9c-6 6-27 17-47 26l-38 15v-15zm7-51c-3-3-12-4-19-1l-13 5 19 1c11 1 17-2 13-5zm-167-13c0-6 4-12 9-15l9-6 6 15 5 15h-14c-8 0-15-4-15-9zm-1215-17c-41-21-64-43-82-78l-15-29v-96l21-34c25-41 62-67 110-78l36-8 41 10 41 11 26 24c15 14 34 39 43 56l16 31-4 52-4 52-24 33-23 32-41 19-41 19h-70l-30-16zm117-101c8-10 18-26 21-36l7-18-15-28c-15-30-33-41-66-41h-20l-24 25-25 24v19c0 11 9 31 21 46l20 26h66l15-17zm185 110c-4-3-7-78-7-165v-158h100v171l15 29 15 28 17 4c10 2 26 2 36 0l19-5 9-24 9-24v-179h102l-4 128-3 127-18 26c-21 32-57 49-102 49h-33l-31-26-31-26v52h-43c-24 0-47-3-50-7zm1113-62c0-10 60-34 67-27 4 3-54 36-64 36-1 0-3-4-3-9zm-290-46c0-22 5-57 11-78l10-37 41-43 41-42 9 33 9 34-15 24c-9 13-16 32-16 43v20l-28 17c-16 9-36 28-45 43l-16 26-1-40zm397-43c-19-44-21-62-7-62h9l11 41c15 56 8 68-13 21zM820 1290c0-5 5-10 11-10h10l-6 10c-3 6-8 10-11 10-2 0-4-4-4-10zm425 0-6-10h10c6 0 11 5 11 10 0 6-2 10-4 10-3 0-8-4-11-10zm875 0c0-5 5-10 10-10 6 0 10 5 10 10 0 6-4 10-10 10-5 0-10-4-10-10zm-189-22-1-18h-24l12-12 12-12v-86l28 1h27l-22 9-23 9v72l23 9 22 9h-22l-22 1-4 18-5 17-1-17zm-1559-30-12-12v-62l12-12 12-12h62l12 12 12 12v55l-16 15-15 16h-55l-12-12zm72-14c9-8 16-22 16-29 0-20-28-45-50-45h-19l-11 19c-5 11-10 24-10 30 0 14 29 41 45 41 7 0 21-7 29-16zm176-31v-53h20v78l23 15 22 15h-32l-33-1v-54zm203 2v-60l4 33c2 18 2 45 0 60l-4 27v-60zm167 36c-5-11-10-29-10-40v-21l24-15 25-16 21 11 22 12-4-24-3-23h-38c-41 0-49-10-15-18l22-6 26 12 25 12 3 66 3 66-45 1-45 2-11-19zm68 0 14-8-4-29-3-29-24-3-25-4-12 17-13 17 6 16c11 30 36 39 61 23zm195-36v-60l4 33c2 18 2 45 0 60l-4 27v-60zm167-2v-53h20v78l16 13 16 13 16-11 17-10 6-44 7-44-2 55-1 55-47 1-48 1v-54zm266 48-6-9 32 2 32 1 4-17 3-17-38-3-38-3v-50l48-1 47-2v84l-12 12-12 12h-27c-15 0-30-4-33-9zm64-66v-15l-26-6-26-7-8 14c-13 19-2 29 31 29h29v-15zm370 20v-55h20v110h-20v-55zm182 43-12-12v-62l12-12 12-12h55l15 16 16 15v48l-16 15-15 16h-55l-12-12zm68-12 12-15-4-22-3-22-17-11-18-11-17 11c-10 6-19 20-21 31l-3 21 16 16c20 20 39 20 55 2zm182-31 1-60 4 35 5 35 15 18c18 19 22 20 42 8l14-9 8-44 7-43-1 55-2 55-28 3-28 3-14-11-13-11-5 13c-3 7-5-14-5-47z"/>
    </g>
    <g fill="#7397a6" transform="matrix(.1 0 0 -.1 0 300)">
      <path d="M1218 1777c-58-17-90-38-121-79-48-65-57-126-32-199l16-44 27-28c36-38 87-64 144-72l46-7 54 16 54 16 39 37 38 37-49 22-49 22-22-20c-11-11-36-23-55-27l-35-8-33 11-34 11-23 34-23 34v68l15 29 15 30 30 15 29 15h79l30-25 30-25 45 21 45 22-14 22c-8 12-36 34-62 48l-47 25-45 6-45 5-47-12zm782-206v-211h110v130h49l33-62 33-63 58-3c31-2 57-1 57 2s-18 35-40 70l-39 65 34 34 33 33 7 45 6 44-13 39-13 39-28 21-28 21-130 3-129 4v-211zm228 107c7-7 12-23 12-37v-24l-17-19-16-18h-107v110h116l12-12zm172-108v-210h320v80h-210v90h190v80h-190v79l103 3 102 3 3 43 3 42h-321v-210zM385 1674c-41-21-64-43-82-78l-15-29v-96l21-34c25-41 62-67 110-78l36-8 41 10 41 11 26 24c15 14 34 39 43 56l16 31-4 52-4 52-24 33-23 32-41 19-41 19h-70l-30-16zm117-101c8-10 18-26 21-36l7-18-15-28c-15-30-33-41-66-41h-20l-24 25-25 24v19c0 11 9 31 21 46l20 26h66l15-17zm185 110c-4-3-7-78-7-165v-158h100v171l15 29 15 28 17 4c10 2 26 2 36 0l19-5 9-24 9-24v-179h102l-4 128-3 127-18 26c-21 32-57 49-102 49h-33l-31-26-31-26v52h-43c-24 0-47-3-50-7z"/>
    </g>
    <g fill="#235b73" transform="matrix(.1 0 0 -.1 0 300)">
      <path d="m1173 1755-53-24-30-47-30-48v-134l33-48 32-48 44-23 44-23h128l37 16c35 14 92 60 92 74 0 4-18 15-39 25l-40 17-31-22-31-22-37-5-37-5-35 24-35 23-19 39-19 38 12 38 11 39 30 24c16 14 43 28 60 32l31 7 53-26 53-26 37 15c20 8 36 19 36 23 0 15-55 61-92 76l-37 16h-116l-52-25zm827-185v-210h99l3 68 3 67 25 3 25 3 38-71 38-70h110l-4 8c-2 4-21 35-42 70l-39 63 26 22c14 12 31 32 37 44l11 22v108l-22 28-21 27-33 14-33 14h-221v-210zm218 114 22-15v-65l-12-12-12-12h-116v120h96l22-16zm192-114v-210h310v79l-107 3-108 3v80l93 3 92 3v78l-92 3-93 3v80l108 3 107 3v79h-310v-210zM408 1680c-15-4-40-17-56-29l-30-21-16-34-16-34v-89l23-34c12-18 38-44 57-57l35-24 58 4 57 4 27 20c15 11 35 32 46 45l18 26 6 40 5 41-12 36-11 36-30 27c-47 45-104 60-161 43zm102-112 20-22v-47l-25-24-24-25h-55l-23 22-23 21v57l20 20 20 20h69l21-22zm330 111c-13-5-33-17-42-26l-18-16v43H680v-320h100v191l25 24c29 30 49 31 75 5l20-20v-200h90v260l-27 29-28 30-35 5-35 5-25-10z"/>
    </g>
  </g>
</svg>